# xmcd
# 
# Track frame offsets:
#	150
#	10100
#	22162
#	34957
#	44525
#	55537
#	67987
#	79425
#	92045
#	103695
#	113625
#	126155
#	136215
#	147840
#	159780
#	174900
#	188387
#	198725
#	211870
#	223980
#
# Disc length: 3216 seconds
#
# Revision: 1
# Processed by: cddbd v1.4PL0 Copyright (c) Steve Scherf et al.
# Submitted via: Audio-CD-Archiv 2.10.437
#
DISCID=150c8e14
DTITLE=John Lee Hooker - Dimples
DYEAR=1900
DGENRE=blues
TTITLE0=Dimples
TTITLE1=Whiskey And Wimmen
TTITLE2=I'm So Excited
TTITLE3=Onions
TTITLE4=No Shoes
TTITLE5=Drug Store Woman
TTITLE6=Boom Boom
TTITLE7=Hobo Blues
TTITLE8=Little Wheel
TTITLE9=Dusty Road
TTITLE10=Baby Lee
TTITLE11=Want-Ad Blues
TTITLE12=Boogie Chillun
TTITLE13=Crawlin' King Snake
TTITLE14=Tupelo
TTITLE15=Trouble Blues
TTITLE16=Maudie
TTITLE17=Time Is Marching
TTITLE18=I'm In The Mood
TTITLE19=Blues Before Sunrise
EXTD=
EXTT0=
EXTT1=
EXTT2=
EXTT3=
EXTT4=
EXTT5=
EXTT6=
EXTT7=
EXTT8=
EXTT9=
EXTT10=
EXTT11=
EXTT12=
EXTT13=
EXTT14=
EXTT15=
EXTT16=
EXTT17=
EXTT18=
EXTT19=
PLAYORDER=
